# xmcd
#
# Track frame offsets:
#	150
#	13495
#	23425
#	37371
#	49908
#	62022
#	75502
#	87295
#	97728
#	110105
#	123579
#	131434
#	146871
#	159967
#	174748
#
# Disc length: 2518 seconds
#
# Revision: 1
# Processed by: cddbd v1.5.2PL0 Copyright (c) Steve Scherf et al.
# Submitted via: audiograbber 1.83.01
#
DISCID=cb09d40f
DTITLE=Various Artist - Country Legends CD4 Wasted Days And Wasted Nights
DYEAR=2005
DGENRE=Country
TTITLE0=Freddy Fender - Wasted Days And Wasted Nights
TTITLE1=Don Williams - Take My Hand For A While
TTITLE2=Patsy Cline - A Church A Courtoom And Then Goodbye
TTITLE3=Leroy van Dyke - The Auctioneer
TTITLE4=Jimmie C. Newman - Teardrops In My Heart
TTITLE5=Kitty Wells - I Don't Claim To Be An Angel
TTITLE6=Hank Williams - A Mansion On The Hill
TTITLE7=Hank Locklin - Let Me Be The One
TTITLE8=Red Foley - Tennessee Border
TTITLE9=Kenny Rogers - Shine On Ruby Mountain
TTITLE10=Jimm Reeves - Oklahoma Hills
TTITLE11=Tina Turner - If This Is Our Last Time
TTITLE12=Freddy Fender - Only One
TTITLE13=Lynn Anderson - Gone At Last
TTITLE14=Razzy Bailey - She's Anybody's Darling
EXTD=
EXTT0=
EXTT1=
EXTT2=
EXTT3=
EXTT4=
EXTT5=
EXTT6=
EXTT7=
EXTT8=
EXTT9=
EXTT10=
EXTT11=
EXTT12=
EXTT13=
EXTT14=
PLAYORDER=
